<svg width="40" height="40" viewBox="0 0 40 40" fill="none" xmlns="http://www.w3.org/2000/svg">
<path d="M33.3333 11.6667H6.66666C4.82571 11.6667 3.33333 13.1591 3.33333 15.0001V31.6667C3.33333 33.5077 4.82571 35.0001 6.66666 35.0001H33.3333C35.1743 35.0001 36.6667 33.5077 36.6667 31.6667V15.0001C36.6667 13.1591 35.1743 11.6667 33.3333 11.6667Z" stroke="#58736C" stroke-width="2" stroke-linecap="round" stroke-linejoin="round"/>
<path d="M26.6667 35V8.33333C26.6667 7.44928 26.3155 6.60143 25.6904 5.97631C25.0652 5.35119 24.2174 5 23.3333 5H16.6667C15.7826 5 14.9348 5.35119 14.3096 5.97631C13.6845 6.60143 13.3333 7.44928 13.3333 8.33333V35" stroke="#58736C" stroke-width="2" stroke-linecap="round" stroke-linejoin="round"/>
</svg>
