<svg width="40" height="40" viewBox="0 0 40 40" fill="none" xmlns="http://www.w3.org/2000/svg">
<path d="M20 36.6666C29.2047 36.6666 36.6667 29.2047 36.6667 19.9999C36.6667 10.7952 29.2047 3.33325 20 3.33325C10.7952 3.33325 3.33333 10.7952 3.33333 19.9999C3.33333 29.2047 10.7952 36.6666 20 36.6666Z" stroke="#58736C" stroke-width="2" stroke-linecap="round" stroke-linejoin="round"/>
<path d="M20 26.6666C23.6819 26.6666 26.6667 23.6818 26.6667 19.9999C26.6667 16.318 23.6819 13.3333 20 13.3333C16.3181 13.3333 13.3333 16.318 13.3333 19.9999C13.3333 23.6818 16.3181 26.6666 20 26.6666Z" stroke="#58736C" stroke-width="2" stroke-linecap="round" stroke-linejoin="round"/>
<path d="M8.21661 8.21655L15.2833 15.2832" stroke="#58736C" stroke-width="2" stroke-linecap="round" stroke-linejoin="round"/>
<path d="M24.7167 24.7168L31.7834 31.7835" stroke="#58736C" stroke-width="2" stroke-linecap="round" stroke-linejoin="round"/>
<path d="M24.7167 15.2832L31.7834 8.21655" stroke="#58736C" stroke-width="2" stroke-linecap="round" stroke-linejoin="round"/>
<path d="M24.7167 15.2832L30.6001 9.3999" stroke="#58736C" stroke-width="2" stroke-linecap="round" stroke-linejoin="round"/>
<path d="M8.21661 31.7835L15.2833 24.7168" stroke="#58736C" stroke-width="2" stroke-linecap="round" stroke-linejoin="round"/>
</svg>
