<svg width="72" height="72" viewBox="0 0 72 72" fill="none" xmlns="http://www.w3.org/2000/svg">
<circle opacity="0.1" cx="36" cy="36" r="36" fill="#58736C"/>
<path d="M39.5022 27.1727C39.1968 27.4843 39.0258 27.9031 39.0258 28.3394C39.0258 28.7757 39.1968 29.1945 39.5022 29.5061L42.1689 32.1727C42.4804 32.4781 42.8993 32.6492 43.3355 32.6492C43.7718 32.6492 44.1907 32.4781 44.5022 32.1727L50.7855 25.8894C51.6236 27.7414 51.8773 29.8048 51.513 31.8046C51.1486 33.8045 50.1834 35.6458 48.746 37.0832C47.3086 38.5206 45.4673 39.4858 43.4674 39.8502C41.4676 40.2145 39.4042 39.9608 37.5522 39.1227L26.0355 50.6394C25.3725 51.3024 24.4732 51.6749 23.5355 51.6749C22.5979 51.6749 21.6986 51.3024 21.0355 50.6394C20.3725 49.9764 20 49.0771 20 48.1394C20 47.2017 20.3725 46.3024 21.0355 45.6394L32.5522 34.1227C31.7141 32.2708 31.4604 30.2073 31.8248 28.2075C32.1891 26.2076 33.1543 24.3663 34.5917 22.9289C36.0291 21.4915 37.8704 20.5264 39.8703 20.162C41.8701 19.7976 43.9335 20.0513 45.7855 20.8894L39.5189 27.1561L39.5022 27.1727Z" stroke="#58736C" stroke-width="2" stroke-linecap="round" stroke-linejoin="round"/>
</svg>
